<svg id="canvas" height="auto" xmlns="http://www.w3.org/2000/svg" version="1.1" xmlns:xlink="http://www.w3.org/1999/xlink" xmlns:svgjs="http://svgjs.dev/svgjs" viewBox="0 0 1920 1080" width="auto" style="width: auto; height: auto;"><rect width="1920" height="1080" fill="transparent"/><line x1="0" y1="0" x2="213.33333333333334" y2="213.33333333333334" stroke-linecap="square" stroke-width="1" stroke="#e5e3eb"/><line x1="213.33333333333334" y1="213.33333333333334" x2="426.6666666666667" y2="0" stroke-linecap="square" stroke-width="1" stroke="#d1d3df"/><line x1="426.6666666666667" y1="0" x2="640" y2="213.33333333333334" stroke-linecap="square" stroke-width="1" stroke="#bdc3d4"/><line x1="640" y1="0" x2="853.3333333333334" y2="213.33333333333334" stroke-linecap="square" stroke-width="1" stroke="#a9b3c8"/><line x1="853.3333333333334" y1="213.33333333333334" x2="1066.6666666666667" y2="0" stroke-linecap="square" stroke-width="1" stroke="#94a4bd"/><line x1="1066.6666666666667" y1="213.33333333333334" x2="1280" y2="0" stroke-linecap="square" stroke-width="1" stroke="#8094b1"/><line x1="1280" y1="0" x2="1493.3333333333333" y2="213.33333333333334" stroke-linecap="square" stroke-width="1" stroke="#6c84a6"/><line x1="1493.3333333333333" y1="0" x2="1706.6666666666665" y2="213.33333333333334" stroke-linecap="square" stroke-width="1" stroke="#58749a"/><line x1="1706.6666666666665" y1="0" x2="1919.9999999999998" y2="213.33333333333334" stroke-linecap="square" stroke-width="1" stroke="#44648f"/><line x1="1919.9999999999998" y1="213.33333333333334" x2="2133.333333333333" y2="0" stroke-linecap="square" stroke-width="1"/><line x1="0" y1="213.33333333333334" x2="213.33333333333334" y2="426.6666666666667" stroke-linecap="square" stroke-width="1" stroke="#e5e3eb"/><line x1="213.33333333333334" y1="426.6666666666667" x2="426.6666666666667" y2="213.33333333333334" stroke-linecap="square" stroke-width="1" stroke="#d1d3df"/><line x1="426.6666666666667" y1="213.33333333333334" x2="640" y2="426.6666666666667" stroke-linecap="square" stroke-width="1" stroke="#bdc3d4"/><line x1="640" y1="426.6666666666667" x2="853.3333333333334" y2="213.33333333333334" stroke-linecap="square" stroke-width="1" stroke="#a9b3c8"/><line x1="853.3333333333334" y1="213.33333333333334" x2="1066.6666666666667" y2="426.6666666666667" stroke-linecap="square" stroke-width="1" stroke="#94a4bd"/><line x1="1066.6666666666667" y1="426.6666666666667" x2="1280" y2="213.33333333333334" stroke-linecap="square" stroke-width="1" stroke="#8094b1"/><line x1="1280" y1="213.33333333333334" x2="1493.3333333333333" y2="426.6666666666667" stroke-linecap="square" stroke-width="1" stroke="#6c84a6"/><line x1="1493.3333333333333" y1="426.6666666666667" x2="1706.6666666666665" y2="213.33333333333334" stroke-linecap="square" stroke-width="1" stroke="#58749a"/><line x1="1706.6666666666665" y1="213.33333333333334" x2="1919.9999999999998" y2="426.6666666666667" stroke-linecap="square" stroke-width="1" stroke="#44648f"/><line x1="1919.9999999999998" y1="426.6666666666667" x2="2133.333333333333" y2="213.33333333333334" stroke-linecap="square" stroke-width="1"/><line x1="0" y1="426.6666666666667" x2="213.33333333333334" y2="640" stroke-linecap="square" stroke-width="1" stroke="#e5e3eb"/><line x1="213.33333333333334" y1="426.6666666666667" x2="426.6666666666667" y2="640" stroke-linecap="square" stroke-width="1" stroke="#d1d3df"/><line x1="426.6666666666667" y1="640" x2="640" y2="426.6666666666667" stroke-linecap="square" stroke-width="1" stroke="#bdc3d4"/><line x1="640" y1="640" x2="853.3333333333334" y2="426.6666666666667" stroke-linecap="square" stroke-width="1" stroke="#a9b3c8"/><line x1="853.3333333333334" y1="426.6666666666667" x2="1066.6666666666667" y2="640" stroke-linecap="square" stroke-width="1" stroke="#94a4bd"/><line x1="1066.6666666666667" y1="640" x2="1280" y2="426.6666666666667" stroke-linecap="square" stroke-width="1" stroke="#8094b1"/><line x1="1280" y1="640" x2="1493.3333333333333" y2="426.6666666666667" stroke-linecap="square" stroke-width="1" stroke="#6c84a6"/><line x1="1493.3333333333333" y1="640" x2="1706.6666666666665" y2="426.6666666666667" stroke-linecap="square" stroke-width="1" stroke="#58749a"/><line x1="1706.6666666666665" y1="426.6666666666667" x2="1919.9999999999998" y2="640" stroke-linecap="square" stroke-width="1" stroke="#44648f"/><line x1="1919.9999999999998" y1="426.6666666666667" x2="2133.333333333333" y2="640" stroke-linecap="square" stroke-width="1"/><line x1="0" y1="853.3333333333334" x2="213.33333333333334" y2="640" stroke-linecap="square" stroke-width="1" stroke="#e5e3eb"/><line x1="213.33333333333334" y1="853.3333333333334" x2="426.6666666666667" y2="640" stroke-linecap="square" stroke-width="1" stroke="#d1d3df"/><line x1="426.6666666666667" y1="640" x2="640" y2="853.3333333333334" stroke-linecap="square" stroke-width="1" stroke="#bdc3d4"/><line x1="640" y1="640" x2="853.3333333333334" y2="853.3333333333334" stroke-linecap="square" stroke-width="1" stroke="#a9b3c8"/><line x1="853.3333333333334" y1="853.3333333333334" x2="1066.6666666666667" y2="640" stroke-linecap="square" stroke-width="1" stroke="#94a4bd"/><line x1="1066.6666666666667" y1="853.3333333333334" x2="1280" y2="640" stroke-linecap="square" stroke-width="1" stroke="#8094b1"/><line x1="1280" y1="640" x2="1493.3333333333333" y2="853.3333333333334" stroke-linecap="square" stroke-width="1" stroke="#6c84a6"/><line x1="1493.3333333333333" y1="853.3333333333334" x2="1706.6666666666665" y2="640" stroke-linecap="square" stroke-width="1" stroke="#58749a"/><line x1="1706.6666666666665" y1="853.3333333333334" x2="1919.9999999999998" y2="640" stroke-linecap="square" stroke-width="1" stroke="#44648f"/><line x1="1919.9999999999998" y1="853.3333333333334" x2="2133.333333333333" y2="640" stroke-linecap="square" stroke-width="1"/><line x1="0" y1="1066.6666666666667" x2="213.33333333333334" y2="853.3333333333334" stroke-linecap="square" stroke-width="1" stroke="#e5e3eb"/><line x1="213.33333333333334" y1="1066.6666666666667" x2="426.6666666666667" y2="853.3333333333334" stroke-linecap="square" stroke-width="1" stroke="#d1d3df"/><line x1="426.6666666666667" y1="853.3333333333334" x2="640" y2="1066.6666666666667" stroke-linecap="square" stroke-width="1" stroke="#bdc3d4"/><line x1="640" y1="1066.6666666666667" x2="853.3333333333334" y2="853.3333333333334" stroke-linecap="square" stroke-width="1" stroke="#a9b3c8"/><line x1="853.3333333333334" y1="853.3333333333334" x2="1066.6666666666667" y2="1066.6666666666667" stroke-linecap="square" stroke-width="1" stroke="#94a4bd"/><line x1="1066.6666666666667" y1="1066.6666666666667" x2="1280" y2="853.3333333333334" stroke-linecap="square" stroke-width="1" stroke="#8094b1"/><line x1="1280" y1="853.3333333333334" x2="1493.3333333333333" y2="1066.6666666666667" stroke-linecap="square" stroke-width="1" stroke="#6c84a6"/><line x1="1493.3333333333333" y1="1066.6666666666667" x2="1706.6666666666665" y2="853.3333333333334" stroke-linecap="square" stroke-width="1" stroke="#58749a"/><line x1="1706.6666666666665" y1="853.3333333333334" x2="1919.9999999999998" y2="1066.6666666666667" stroke-linecap="square" stroke-width="1" stroke="#44648f"/><line x1="1919.9999999999998" y1="853.3333333333334" x2="2133.333333333333" y2="1066.6666666666667" stroke-linecap="square" stroke-width="1"/><line x1="0" y1="1280" x2="213.33333333333334" y2="1066.6666666666667" stroke-linecap="square" stroke-width="1" stroke="#e5e3eb"/><line x1="213.33333333333334" y1="1280" x2="426.6666666666667" y2="1066.6666666666667" stroke-linecap="square" stroke-width="1" stroke="#d1d3df"/><line x1="426.6666666666667" y1="1280" x2="640" y2="1066.6666666666667" stroke-linecap="square" stroke-width="1" stroke="#bdc3d4"/><line x1="640" y1="1066.6666666666667" x2="853.3333333333334" y2="1280" stroke-linecap="square" stroke-width="1" stroke="#a9b3c8"/><line x1="853.3333333333334" y1="1280" x2="1066.6666666666667" y2="1066.6666666666667" stroke-linecap="square" stroke-width="1" stroke="#94a4bd"/><line x1="1066.6666666666667" y1="1066.6666666666667" x2="1280" y2="1280" stroke-linecap="square" stroke-width="1" stroke="#8094b1"/><line x1="1280" y1="1280" x2="1493.3333333333333" y2="1066.6666666666667" stroke-linecap="square" stroke-width="1" stroke="#6c84a6"/><line x1="1493.3333333333333" y1="1066.6666666666667" x2="1706.6666666666665" y2="1280" stroke-linecap="square" stroke-width="1" stroke="#58749a"/><line x1="1706.6666666666665" y1="1280" x2="1919.9999999999998" y2="1066.6666666666667" stroke-linecap="square" stroke-width="1" stroke="#44648f"/><line x1="1919.9999999999998" y1="1280" x2="2133.333333333333" y2="1066.6666666666667" stroke-linecap="square" stroke-width="1"/></svg>